<svg width="40" height="40" viewBox="0 0 40 40" fill="none" xmlns="http://www.w3.org/2000/svg">
<path d="M14.5117 32.8449L30 17.3565L22.6433 9.99988L7.155 25.4882C6.94177 25.7017 6.79031 25.9689 6.71667 26.2615L5 34.9999L13.7367 33.2832C14.03 33.2099 14.2983 33.0582 14.5117 32.8449V32.8449ZM35 12.3565C35.6249 11.7315 35.976 10.8838 35.976 9.99988C35.976 9.116 35.6249 8.26831 35 7.64321L32.3567 4.99988C31.7316 4.37498 30.8839 4.02393 30 4.02393C29.1161 4.02393 28.2684 4.37498 27.6433 4.99988L25 7.64321L32.3567 14.9999L35 12.3565Z" fill="#001A83" fill-opacity="0.75"/>
</svg>
