<svg width="40" height="40" viewBox="0 0 40 40" fill="none" xmlns="http://www.w3.org/2000/svg">
<path d="M6.66673 35.0001C6.79958 35.0161 6.93388 35.0161 7.06673 35.0001L13.7334 33.3334C14.0291 33.2631 14.3 33.1133 14.5167 32.9001L35.0001 12.3501C35.6209 11.7255 35.9694 10.8807 35.9694 10.0001C35.9694 9.11946 35.6209 8.27463 35.0001 7.65008L32.3667 5.00008C32.0572 4.69016 31.6895 4.4443 31.2849 4.27655C30.8802 4.1088 30.4464 4.02246 30.0084 4.02246C29.5703 4.02246 29.1366 4.1088 28.7319 4.27655C28.3273 4.4443 27.9596 4.69016 27.6501 5.00008L7.16673 25.4834C6.95138 25.7011 6.79631 25.9711 6.71673 26.2668L5.05006 32.9334C4.99016 33.1491 4.9743 33.3746 5.00344 33.5965C5.03258 33.8184 5.10612 34.0322 5.21967 34.225C5.33321 34.4179 5.48444 34.5859 5.66434 34.7191C5.84423 34.8523 6.0491 34.9478 6.26673 35.0001C6.39958 35.0161 6.53388 35.0161 6.66673 35.0001ZM30.0001 7.35008L32.6501 10.0001L30.0001 12.6501L27.3667 10.0001L30.0001 7.35008ZM9.85006 27.5168L25.0001 12.3501L27.6501 15.0001L12.4834 30.1668L8.96673 31.0334L9.85006 27.5168Z" fill="#F3F3F3"/>
</svg>
