<svg width="40" height="40" viewBox="0 0 40 40" fill="none" xmlns="http://www.w3.org/2000/svg">
<path d="M35.9249 13.6134L20.9249 3.61343C20.6512 3.43106 20.3297 3.33374 20.0008 3.33374C19.6718 3.33374 19.3503 3.43106 19.0766 3.61343L4.07659 13.6134C3.84879 13.7657 3.66228 13.9721 3.53373 14.2141C3.40518 14.456 3.33859 14.7261 3.33992 15.0001H3.33325V33.3334C3.33325 34.2175 3.68444 35.0653 4.30956 35.6905C4.93468 36.3156 5.78253 36.6668 6.66659 36.6668H33.3333C34.2173 36.6668 35.0652 36.3156 35.6903 35.6905C36.3154 35.0653 36.6666 34.2175 36.6666 33.3334V15.0001H36.6599C36.6611 14.7263 36.5947 14.4564 36.4664 14.2145C36.3382 13.9726 36.1522 13.7661 35.9249 13.6134V13.6134ZM33.3333 21.1668L19.9999 28.3334L6.66659 21.1668V17.1618L19.9999 24.3268L33.3333 17.1618V21.1668Z" fill="#001A83" fill-opacity="0.75"/>
</svg>
