<svg width="30" height="30" viewBox="0 0 30 30" fill="none" xmlns="http://www.w3.org/2000/svg">
<path d="M26.9438 10.21L15.6938 2.71001C15.4885 2.57323 15.2473 2.50024 15.0006 2.50024C14.7539 2.50024 14.5128 2.57323 14.3075 2.71001L3.0575 10.21C2.88612 10.3241 2.74556 10.4787 2.64831 10.6601C2.55105 10.8415 2.50011 11.0442 2.5 11.25V25C2.5 26.3788 3.62125 27.5 5 27.5H25C26.3788 27.5 27.5 26.3788 27.5 25V11.25C27.5 10.8325 27.2913 10.4425 26.9438 10.21ZM15 5.25251L23.9963 11.25L15 17.2475L6.00375 11.25L15 5.25251ZM5 25V13.5863L14.3062 19.79C14.5117 19.9271 14.7531 20.0002 15 20.0002C15.2469 20.0002 15.4883 19.9271 15.6938 19.79L25 13.5863L24.9962 25H5Z" fill="#001A83"/>
</svg>
