<svg width="40" height="40" viewBox="0 0 40 40" fill="none" xmlns="http://www.w3.org/2000/svg">
<path d="M33.3333 6.66675H6.66659C4.82825 6.66675 3.33325 8.16175 3.33325 10.0001V30.0001C3.33325 31.8384 4.82825 33.3334 6.66659 33.3334H33.3333C35.1716 33.3334 36.6666 31.8384 36.6666 30.0001V10.0001C36.6666 8.16175 35.1716 6.66675 33.3333 6.66675ZM33.3333 10.0001V10.8517L19.9999 21.2234L6.66659 10.8534V10.0001H33.3333ZM6.66659 30.0001V15.0734L18.9766 24.6484C19.2684 24.8777 19.6288 25.0023 19.9999 25.0023C20.371 25.0023 20.7314 24.8777 21.0233 24.6484L33.3333 15.0734L33.3366 30.0001H6.66659Z" fill="#F3F3F3"/>
</svg>
