<svg width="40" height="40" viewBox="0 0 40 40" fill="none" xmlns="http://www.w3.org/2000/svg">
<path d="M33.3333 6.66675H6.66659C5.78253 6.66675 4.93468 7.01794 4.30956 7.64306C3.68444 8.26818 3.33325 9.11603 3.33325 10.0001V30.0001C3.33325 30.8841 3.68444 31.732 4.30956 32.3571C4.93468 32.9822 5.78253 33.3334 6.66659 33.3334H33.3333C34.2173 33.3334 35.0652 32.9822 35.6903 32.3571C36.3154 31.732 36.6666 30.8841 36.6666 30.0001V10.0001C36.6666 9.11603 36.3154 8.26818 35.6903 7.64306C35.0652 7.01794 34.2173 6.66675 33.3333 6.66675V6.66675ZM33.3333 14.5001L19.9999 23.3901L6.66659 14.5001V10.4951L19.9999 19.3834L33.3333 10.4951V14.5001Z" fill="#001A83" fill-opacity="0.75"/>
</svg>
