<svg width="152" height="38" viewBox="0 0 152 38" fill="none" xmlns="http://www.w3.org/2000/svg">
<path d="M13.024 29.68L10.752 25.584V31.408L5.248 31.888L2.048 30.288V5.968L10.08 5.264C10.2507 5.24266 10.4107 5.232 10.56 5.232C10.7307 5.232 10.8907 5.232 11.04 5.232C12.2773 5.232 13.472 5.424 14.624 5.808C15.776 6.192 16.8107 6.75733 17.728 7.504C18.6453 8.25067 19.3707 9.15733 19.904 10.224C20.4373 11.2693 20.704 12.464 20.704 13.808C20.704 17.2 19.4667 19.6427 16.992 21.136L22.4 30.768L16.224 31.28L13.024 29.68ZM13.344 19.408C14.6667 18.6827 15.6373 17.7227 16.256 16.528C16.8747 15.3333 17.184 13.8933 17.184 12.208C17.184 10.224 16.6293 8.624 15.52 7.408C14.432 6.17067 12.896 5.552 10.912 5.552C10.784 5.552 10.656 5.552 10.528 5.552C10.4 5.552 10.2613 5.56267 10.112 5.584L2.368 6.256V29.968L7.232 29.552V21.104L8.608 20.976L13.184 29.36L18.656 28.88L13.344 19.408ZM7.232 10.448L9.344 10.256H9.696C10.4 10.256 10.9867 10.4693 11.456 10.896C11.9467 11.3013 12.192 12.016 12.192 13.04C12.192 14.1067 11.936 14.9387 11.424 15.536C10.912 16.112 10.2187 16.4427 9.344 16.528L7.232 16.72V10.448ZM10.752 15.728C11.4987 15.1947 11.872 14.2987 11.872 13.04C11.872 12.8907 11.8613 12.752 11.84 12.624C11.84 12.496 11.8293 12.368 11.808 12.24L10.752 12.336V15.728ZM22.2508 24.336C23.5308 24.6133 24.6508 24.752 25.6108 24.752H25.9628C26.4534 24.7093 26.7841 24.5173 26.9548 24.176C27.1468 23.8347 27.2428 23.3653 27.2428 22.768V5.584L32.7148 5.104L35.9148 6.704V25.36C35.9148 29.6053 34.1121 31.888 30.5068 32.208C29.8454 32.272 29.2161 32.304 28.6188 32.304C28.0854 32.304 27.5841 32.2827 27.1148 32.24C26.6454 32.1973 26.2294 32.144 25.8668 32.08L22.6348 30.48L22.2508 24.336ZM27.5628 5.872V22.768C27.5628 23.472 27.4454 24.0267 27.2108 24.432C26.9761 24.816 26.5708 25.0293 25.9948 25.072H25.6108C25.1841 25.072 24.6828 25.04 24.1068 24.976C23.5308 24.912 23.0294 24.8373 22.6028 24.752L22.9548 30.192C23.2534 30.2347 23.6054 30.2773 24.0108 30.32C24.4161 30.3627 24.8748 30.384 25.3868 30.384C25.9841 30.384 26.6134 30.352 27.2748 30.288C30.6881 30.0107 32.3948 27.8347 32.3948 23.76V5.456L27.5628 5.872ZM56.8168 30.288L56.4648 31.376L50.9928 31.856L48.2728 30.512V31.76L43.2168 32.208L40.0168 30.608V6.288L46.2888 5.712L49.4888 7.312L52.0488 16.848L54.9928 5.584L61.2328 5.072L64.4328 6.672V31.024L59.1208 31.44L56.8168 30.288ZM55.2488 5.904L51.1848 21.584C51.1208 21.84 51.0568 22.1387 50.9928 22.48C50.9288 22.8 50.8754 23.088 50.8328 23.344C50.7901 23.6 50.7688 23.728 50.7688 23.728L50.6408 23.76C50.6408 23.76 50.6194 23.632 50.5768 23.376C50.5554 23.12 50.5128 22.8213 50.4488 22.48C50.4061 22.1387 50.3528 21.8507 50.2888 21.616L46.0328 6.064L40.3368 6.576V30.256L44.7528 29.904V19.664C44.7528 19.216 44.7421 18.7467 44.7208 18.256C44.6994 17.744 44.6781 17.3173 44.6568 16.976C44.6354 16.6347 44.6248 16.464 44.6248 16.464L44.6888 16.432C44.7314 16.7307 44.7848 17.104 44.8488 17.552C44.9341 17.9787 45.0194 18.3947 45.1048 18.8C45.2114 19.184 45.2861 19.4827 45.3288 19.696L48.0168 29.936L52.9768 29.488L55.6007 19.664C55.7288 19.1733 55.8461 18.6613 55.9528 18.128C56.0594 17.5733 56.1448 17.104 56.2088 16.72C56.2728 16.336 56.3048 16.144 56.3048 16.144L56.3688 16.176C56.3688 16.176 56.3581 16.368 56.3368 16.752C56.3154 17.136 56.2941 17.584 56.2728 18.096C56.2514 18.608 56.2408 19.0667 56.2408 19.472V29.52L60.9128 29.136V5.424L55.2488 5.904ZM84.9008 30.576C84.2181 30.8533 83.5141 30.992 82.7888 30.992C82.1274 30.992 81.5194 30.896 80.9648 30.704C80.4101 30.5333 79.9834 30.3627 79.6848 30.192C78.7461 31.3227 77.3701 31.9733 75.5568 32.144C75.3861 32.1653 75.2154 32.176 75.0448 32.176C74.8741 32.176 74.7034 32.176 74.5328 32.176C73.2101 32.176 71.9941 31.9413 70.8848 31.472C69.7754 31.024 68.8794 30.3413 68.1968 29.424C67.5354 28.4853 67.2048 27.3333 67.2048 25.968C67.2048 24.496 67.6101 23.3227 68.4208 22.448C69.2528 21.5733 70.4901 20.7413 72.1328 19.952L70.5008 19.408L67.3008 17.808C67.8341 15.952 68.6981 14.5547 69.8928 13.616C71.1088 12.6773 72.4848 12.1333 74.0208 11.984C74.2128 11.9627 74.4048 11.952 74.5968 11.952C74.7888 11.9307 74.9701 11.92 75.1408 11.92C76.6768 11.92 78.0741 12.208 79.3328 12.784C80.5914 13.3387 81.5941 14.1387 82.3408 15.184C83.0874 16.208 83.4608 17.4133 83.4608 18.8V24.88L85.4128 25.84L84.9008 30.576ZM81.8288 24.784C81.3168 25.0187 80.9328 25.136 80.6768 25.136C80.1861 25.136 79.9408 24.816 79.9408 24.176V17.2C79.9408 13.9147 78.2874 12.272 74.9808 12.272C74.8314 12.272 74.6821 12.272 74.5328 12.272C74.3834 12.272 74.2234 12.2827 74.0528 12.304C72.5808 12.4533 71.2688 12.9653 70.1168 13.84C68.9648 14.7147 68.1541 15.984 67.6848 17.648L71.2688 18.832C71.5034 18.1067 71.8234 17.52 72.2288 17.072C72.6554 16.624 73.1354 16.3787 73.6688 16.336C73.7328 16.336 73.7968 16.336 73.8608 16.336C73.9248 16.3147 73.9781 16.304 74.0208 16.304C74.5114 16.304 74.8848 16.4213 75.1408 16.656C75.3968 16.8907 75.5248 17.2107 75.5248 17.616C75.5248 18.064 75.3861 18.4267 75.1088 18.704C74.8314 18.96 74.4474 19.2053 73.9568 19.44L72.5168 20.112C70.8741 20.88 69.6261 21.6907 68.7728 22.544C67.9408 23.376 67.5247 24.5173 67.5247 25.968C67.5247 28.8267 68.8688 30.256 71.5568 30.256C71.6848 30.256 71.8128 30.256 71.9408 30.256C72.0688 30.256 72.1968 30.2453 72.3248 30.224C73.3488 30.1387 74.2341 29.8933 74.9808 29.488C75.7274 29.0827 76.2928 28.5067 76.6768 27.76C76.8261 28.208 77.1461 28.56 77.6368 28.816C78.1274 29.072 78.7034 29.2 79.3648 29.2C80.0688 29.2 80.7408 29.0613 81.3808 28.784L81.8288 24.784ZM73.2208 26.512C72.8581 26.512 72.5594 26.416 72.3248 26.224C72.0901 26.0107 71.9728 25.712 71.9728 25.328C71.9728 24.4107 72.4421 23.728 73.3808 23.28L74.0208 22.96C74.3194 22.8107 74.6074 22.672 74.8848 22.544C75.1834 22.3947 75.4074 22.2347 75.5568 22.064V24.272C75.4501 24.9333 75.1941 25.4667 74.7888 25.872C74.3834 26.256 73.9354 26.4693 73.4448 26.512H73.2208ZM87.3828 29.904V12.304L89.5588 12.144L87.3188 11.024V5.584L92.6628 5.136L95.8628 6.736V12.176L93.5908 12.368L95.7668 13.456V31.024L90.5828 31.472L87.3828 29.904ZM87.6388 5.872V10.672L92.3428 10.288V5.488L87.6388 5.872ZM87.7028 12.592V29.552L92.2468 29.168V12.208L87.7028 12.592ZM99.1328 29.904V5.584L104.477 5.136L107.677 6.736V31.056L102.333 31.472L99.1328 29.904ZM99.4528 5.872V29.552L104.157 29.168V5.488L99.4528 5.872Z" fill="white"/>
<g clip-path="url(#clip0_56840_637)">
<path d="M122.806 4.27979L128.275 10.1935L124.414 17.7876L132.555 16.3282L136.26 25.2724L152 4.63366L122.806 4.27979ZM121.805 17.0822L123.321 15.8389L121.365 16.4576L121.161 16.1726L121.972 15.3877L120.914 15.814C116.868 17.385 113.999 21.3002 113.999 25.8899C113.997 27.3564 114.296 28.8076 114.877 30.1541C115.458 31.5006 116.308 32.7138 117.376 33.7191C116.453 32.1004 115.969 30.2685 115.971 28.405C115.971 23.8723 118.841 19.8325 122.805 18.2436L123.308 17.0323L122.12 17.5513L121.786 17.1L121.805 17.0822ZM128.714 13.965L131.245 9.50004L146.125 6.01828L128.714 13.965Z" fill="white"/>
</g>
<defs>
<clipPath id="clip0_56840_637">
<rect width="38" height="38" fill="white" transform="translate(114)"/>
</clipPath>
</defs>
</svg>
