<svg width="40" height="40" viewBox="0 0 40 40" fill="none" xmlns="http://www.w3.org/2000/svg">
<path d="M35.71 18.4916L7.37668 5.15825C7.0914 5.02327 6.77364 4.97216 6.46042 5.01086C6.14721 5.04956 5.85144 5.17648 5.6076 5.37683C5.36375 5.57718 5.18187 5.84271 5.08315 6.14247C4.98443 6.44223 4.97294 6.76387 5.05001 7.06991L8.28168 19.9999L5.05001 32.9299C4.97222 33.2361 4.98321 33.558 5.0817 33.8582C5.18019 34.1583 5.36211 34.4242 5.60617 34.6247C5.85024 34.8253 6.14636 34.9521 6.4599 34.9905C6.77344 35.029 7.09143 34.9773 7.37668 34.8416L35.71 21.5082C35.9963 21.3737 36.2384 21.1603 36.408 20.8932C36.5776 20.6261 36.6677 20.3163 36.6677 19.9999C36.6677 19.6835 36.5776 19.3737 36.408 19.1066C36.2384 18.8395 35.9963 18.6262 35.71 18.4916V18.4916ZM9.13501 30.3282L10.5333 24.7332L20 19.9999L10.5333 15.2666L9.13501 9.67158L31.085 19.9999L9.13501 30.3282Z" fill="#F3F3F3"/>
</svg>
