<svg width="40" height="40" viewBox="0 0 40 40" fill="none" xmlns="http://www.w3.org/2000/svg">
<path d="M35.71 18.4917L7.37668 5.15837C7.09137 5.02412 6.77384 4.97356 6.46094 5.01255C6.14805 5.05155 5.85264 5.1785 5.60901 5.37868C5.36539 5.57885 5.18354 5.84402 5.08459 6.14341C4.98564 6.44279 4.97365 6.76411 5.05001 7.07003L7.07001 15.1517L20 20L7.07001 24.8484L5.05001 32.93C4.97222 33.2362 4.98321 33.5582 5.0817 33.8583C5.18019 34.1584 5.36211 34.4243 5.60617 34.6249C5.85024 34.8254 6.14636 34.9523 6.4599 34.9907C6.77344 35.0291 7.09143 34.9774 7.37668 34.8417L35.71 21.5084C35.9963 21.3738 36.2384 21.1605 36.408 20.8934C36.5776 20.6263 36.6677 20.3164 36.6677 20C36.6677 19.6837 36.5776 19.3738 36.408 19.1067C36.2384 18.8396 35.9963 18.6263 35.71 18.4917V18.4917Z" fill="#001A83" fill-opacity="0.75"/>
</svg>
